<?xml version="1.0" encoding="UTF-8"?>
<!DOCTYPE svg PUBLIC "-//W3C//DTD SVG 1.1//EN" "http://www.w3.org/Graphics/SVG/1.1/DTD/svg11.dtd">
<svg xmlns="http://www.w3.org/2000/svg" version="1.1" width="100px" height="15px" viewBox="0 0 1920 286" style="shape-rendering:geometricPrecision; text-rendering:geometricPrecision; image-rendering:optimizeQuality; fill-rule:evenodd; clip-rule:evenodd" xmlns:xlink="http://www.w3.org/1999/xlink">
<g><path style="opacity:1" fill="#198653" d="M 856.5,-0.5 C 899.833,-0.5 943.167,-0.5 986.5,-0.5C 961.047,36.4747 934.547,72.808 907,108.5C 906.312,109.332 906.479,109.998 907.5,110.5C 936.724,92.079 968.724,81.9123 1003.5,80C 1027.17,79.3333 1050.83,79.3333 1074.5,80C 1091.67,80.9564 1107.67,85.623 1122.5,94C 1125.87,97.2322 1128.37,101.066 1130,105.5C 1131.76,115.821 1130.09,125.488 1125,134.5C 1089.38,183.625 1053.55,232.625 1017.5,281.5C 974.876,282.494 932.209,282.828 889.5,282.5C 889.338,280.473 889.505,278.473 890,276.5C 922.042,234.442 953.376,191.776 984,148.5C 986.428,142.199 984.261,138.032 977.5,136C 968.46,133.998 959.293,133.164 950,133.5C 927.951,132.509 907.118,137.009 887.5,147C 876.09,153.742 866.59,162.575 859,173.5C 832.275,209.383 805.775,245.383 779.5,281.5C 736.839,282.5 694.172,282.833 651.5,282.5C 651.749,278.386 653.249,274.72 656,271.5C 696.276,216.716 736.776,162.049 777.5,107.5C 721.503,106.333 665.503,106.167 609.5,107C 580.911,146.276 552.245,185.609 523.5,225C 521.78,227.839 522.446,229.839 525.5,231C 542.177,234.724 557.843,232.39 572.5,224C 608.165,223.5 643.832,223.333 679.5,223.5C 679.736,226.226 678.903,228.559 677,230.5C 655.91,254.9 629.41,270.4 597.5,277C 563.932,282.936 530.098,285.436 496,284.5C 474.119,284.78 452.286,283.947 430.5,282C 418.879,280.71 407.546,278.21 396.5,274.5C 382.15,267.314 377.65,255.981 383,240.5C 384.667,237.167 386.333,233.833 388,230.5C 418.36,189.641 448.526,148.641 478.5,107.5C 464.516,106.501 450.516,106.167 436.5,106.5C 436.34,104.801 436.506,103.134 437,101.5C 443.858,92.9169 450.358,84.0836 456.5,75C 471.833,74.6667 487.167,74.3333 502.5,74C 519.954,52.2577 537.287,30.4244 554.5,8.5C 597.161,7.50008 639.828,7.16675 682.5,7.5C 682.856,10.5641 682.023,13.2307 680,15.5C 664.631,34.6993 649.464,54.0327 634.5,73.5C 690.5,74.8333 746.5,74.8333 802.5,73.5C 820.519,48.7744 838.519,24.1077 856.5,-0.5 Z"/></g>
<g><path style="opacity:1" fill="#c4c5c4" d="M 848.5,4.5 C 849.833,5.16667 849.833,5.16667 848.5,4.5 Z"/></g>
<g><path style="opacity:1" fill="#198754" d="M -0.5,255.5 C -0.5,245.167 -0.5,234.833 -0.5,224.5C 20.2573,180.584 50.2573,144.417 89.5,116C 122.573,97.0263 158.073,86.193 196,83.5C 207.754,82.0577 219.587,80.8911 231.5,80C 267.5,79.3333 303.5,79.3333 339.5,80C 350.08,80.8984 360.58,82.0651 371,83.5C 381.947,84.6863 392.781,87.1863 403.5,91C 424.63,99.8691 431.463,115.369 424,137.5C 419.852,147.13 415.185,156.463 410,165.5C 402.964,175.034 396.131,184.701 389.5,194.5C 307.835,195.333 226.169,195.833 144.5,196C 137.8,204.039 132.8,213.039 129.5,223C 129.834,225.175 130.834,227.008 132.5,228.5C 141.563,233.015 151.23,235.181 161.5,235C 174.85,235.555 188.184,235.222 201.5,234C 219.921,233.323 235.255,226.323 247.5,213C 289.189,212.811 330.856,212.311 372.5,211.5C 372.808,213.924 372.474,216.257 371.5,218.5C 351.37,243.072 326.037,259.905 295.5,269C 259.408,278.306 222.408,283.306 184.5,284C 146.128,285.108 107.795,284.441 69.5,282C 51.9851,280.582 34.9851,276.916 18.5,271C 10.4505,267.77 4.11718,262.603 -0.5,255.5 Z M 236.5,128.5 C 251.194,128.251 265.861,128.751 280.5,130C 285.083,130.562 289.417,131.895 293.5,134C 295.01,135.351 296.01,137.018 296.5,139C 294.267,144.803 291.267,150.136 287.5,155C 250.167,155.667 212.833,155.667 175.5,155C 184.482,143.369 196.149,135.702 210.5,132C 219.296,130.671 227.962,129.504 236.5,128.5 Z"/></g>
<g><path style="opacity:1" fill="#198754" d="M 1319.5,79.5 C 1360.5,79.3333 1401.5,79.5 1442.5,80C 1463.51,80.7091 1484.17,83.7091 1504.5,89C 1528.38,97.5035 1535.21,113.67 1525,137.5C 1504.28,177.288 1477.12,211.954 1443.5,241.5C 1417.09,260.19 1387.76,272.023 1355.5,277C 1336.93,279.878 1318.26,281.878 1299.5,283C 1261.81,284.357 1224.31,284.857 1187,284.5C 1164,283.425 1141.17,280.592 1118.5,276C 1088.63,269.09 1079.13,251.257 1090,222.5C 1110.74,183.272 1137.91,149.272 1171.5,120.5C 1200.52,101.062 1232.52,89.2283 1267.5,85C 1284.94,82.7607 1302.28,80.9274 1319.5,79.5 Z M 1319.5,133.5 C 1336.17,133.333 1352.84,133.5 1369.5,134C 1377.05,134.002 1383.55,136.502 1389,141.5C 1389.67,143.5 1389.67,145.5 1389,147.5C 1384.85,155.796 1380.19,163.796 1375,171.5C 1364.32,186.019 1352.82,199.853 1340.5,213C 1324.95,224.922 1307.28,230.588 1287.5,230C 1269.77,230.989 1252.1,230.322 1234.5,228C 1228.78,227.109 1225.11,223.942 1223.5,218.5C 1225.94,210.947 1229.44,203.947 1234,197.5C 1244.46,182.914 1255.62,168.914 1267.5,155.5C 1282.29,142.127 1299.62,134.794 1319.5,133.5 Z"/></g>
<g><path style="opacity:1" fill="#198754" d="M 1919.5,100.5 C 1919.5,108.5 1919.5,116.5 1919.5,124.5C 1915.92,129.771 1912.25,135.105 1908.5,140.5C 1867.84,141.5 1827.17,141.833 1786.5,141.5C 1786.39,138.951 1787.05,136.618 1788.5,134.5C 1786.1,130.282 1782.43,127.782 1777.5,127C 1756.87,125.405 1736.2,125.072 1715.5,126C 1704.62,126.089 1694.29,128.422 1684.5,133C 1680.68,136.973 1677.35,141.306 1674.5,146C 1676.48,147.889 1678.82,149.222 1681.5,150C 1686.49,150.749 1691.49,151.415 1696.5,152C 1728.82,153.209 1761.16,154.209 1793.5,155C 1814.74,155.504 1835.74,157.838 1856.5,162C 1862.87,163.898 1868.87,166.565 1874.5,170C 1879.68,174.51 1882.02,180.177 1881.5,187C 1881.04,196.756 1877.88,205.589 1872,213.5C 1856.97,234.1 1837.8,249.6 1814.5,260C 1777.56,274.12 1738.9,281.787 1698.5,283C 1654.51,284.548 1610.51,284.881 1566.5,284C 1546.93,283.637 1527.59,281.303 1508.5,277C 1482.32,270.129 1474.82,254.296 1486,229.5C 1488.83,225.333 1491.67,221.167 1494.5,217C 1537.17,216.5 1579.83,216.333 1622.5,216.5C 1622.66,218.199 1622.49,219.866 1622,221.5C 1616.71,227.165 1617.54,231.665 1624.5,235C 1638.65,237.777 1652.98,238.944 1667.5,238.5C 1685.29,238.662 1702.96,237.495 1720.5,235C 1731.18,231.292 1738.85,224.292 1743.5,214C 1742.5,212.333 1741.17,211 1739.5,210C 1733.61,208.355 1727.61,207.355 1721.5,207C 1676.75,207.407 1632.08,205.741 1587.5,202C 1570.97,200.542 1555.64,195.708 1541.5,187.5C 1540,185.167 1538.5,182.833 1537,180.5C 1536.63,174.19 1536.46,168.024 1536.5,162C 1560.67,119.9 1597.01,94.8997 1645.5,87C 1665,83.2705 1684.67,80.9371 1704.5,80C 1752.17,79.3333 1799.83,79.3333 1847.5,80C 1866.2,80.7671 1884.54,83.7671 1902.5,89C 1908.95,91.8456 1914.62,95.679 1919.5,100.5 Z"/></g>
<g><path style="opacity:1" fill="#e3e4e3" d="M 1488.5,81.5 C 1489.83,82.1667 1489.83,82.1667 1488.5,81.5 Z"/></g>
<g><path style="opacity:1" fill="#e3e4e3" d="M 1256.5,83.5 C 1257.83,84.1667 1257.83,84.1667 1256.5,83.5 Z"/></g>
<g><path style="opacity:1" fill="#e3e4e3" d="M 169.5,84.5 C 170.833,85.1667 170.833,85.1667 169.5,84.5 Z"/></g>
<g><path style="opacity:1" fill="#c4c5c4" d="M 472.5,108.5 C 473.833,109.167 473.833,109.167 472.5,108.5 Z"/></g>
<g><path style="opacity:1" fill="#9c9d9c" d="M 1552.5,128.5 C 1553.83,129.167 1553.83,129.167 1552.5,128.5 Z"/></g>
<g><path style="opacity:1" fill="#e3e4e3" d="M 1555.5,131.5 C 1556.83,132.167 1556.83,132.167 1555.5,131.5 Z"/></g>
<g><path style="opacity:1" fill="#e3e4e3" d="M 917.5,138.5 C 918.833,139.167 918.833,139.167 917.5,138.5 Z"/></g>
<g><path style="opacity:1" fill="#c4c5c4" d="M 1136.5,148.5 C 1137.83,149.167 1137.83,149.167 1136.5,148.5 Z"/></g>
<g><path style="opacity:1" fill="#e3e4e3" d="M 1832.5,153.5 C 1833.83,154.167 1833.83,154.167 1832.5,153.5 Z"/></g>
<g><path style="opacity:1" fill="#c4c5c4" d="M 1109.5,161.5 C 1110.83,162.167 1110.83,162.167 1109.5,161.5 Z"/></g>
<g><path style="opacity:1" fill="#c4c5c4" d="M 1101.5,170.5 C 1102.83,171.167 1102.83,171.167 1101.5,170.5 Z"/></g>
<g><path style="opacity:1" fill="#c4c5c4" d="M 944.5,196.5 C 945.833,197.167 945.833,197.167 944.5,196.5 Z"/></g>
<g><path style="opacity:1" fill="#e3e4e3" d="M 1729.5,209.5 C 1730.83,210.167 1730.83,210.167 1729.5,209.5 Z"/></g>
<g><path style="opacity:1" fill="#c4c5c4" d="M 384.5,228.5 C 385.833,229.167 385.833,229.167 384.5,228.5 Z"/></g>
<g><path style="opacity:1" fill="#c4c5c4" d="M 1450.5,236.5 C 1451.83,237.167 1451.83,237.167 1450.5,236.5 Z"/></g>
<g><path style="opacity:1" fill="#c4c5c4" d="M 1429.5,252.5 C 1430.83,253.167 1430.83,253.167 1429.5,252.5 Z"/></g>
<g><path style="opacity:1" fill="#e3e4e3" d="M 569.5,285.5 C 568.833,284.167 568.833,284.167 569.5,285.5 Z"/></g>
<g><path style="opacity:1" fill="#e3e4e3" d="M 1321.5,285.5 C 1320.83,284.167 1320.83,284.167 1321.5,285.5 Z"/></g>
</svg>
